# xmcd CD database file generated by OrangeCD 6.4
#
# Track frame offsets:
#	150
#	11800
#	27165
#	43550
#	61583
#	75763
#	92943
#	103203
#	121808
#	143708
#
# Disc length: 2073 seconds
#
# Revision: 5
# Processed by: cddbd v1.5.2PL0 Copyright (c) Steve Scherf et al.
# Submitted via: OrangeCD 6.4
#
DISCID=7208170a
DTITLE=Steve Earle - Guitar Town
DYEAR=1986
DGENRE=Roots Rock
TTITLE0=Guitar Town
TTITLE1=Goodbye's All We've Got Left
TTITLE2=Hillbilly Highway
TTITLE3=Good Ol' Boy (Gettin' Tough)
TTITLE4=My Old Friend The Blues
TTITLE5=Someday
TTITLE6=Think It Over
TTITLE7=Fearless Heart
TTITLE8=Little Rock 'N' Roller
TTITLE9=Down The Road
EXTD=
EXTT0=
EXTT1=
EXTT2=
EXTT3=
EXTT4=
EXTT5=
EXTT6=
EXTT7=
EXTT8=
EXTT9=
PLAYORDER=
